<svg width="53" height="56" viewBox="0 0 53 56" fill="none" xmlns="http://www.w3.org/2000/svg">
<path d="M26.2883 28.0562C22.722 28.0562 19.6691 26.7218 17.1295 24.053C14.5899 21.3843 13.32 18.1761 13.32 14.4284C13.32 10.6808 14.5899 7.47262 17.1295 4.80386C19.6691 2.1351 22.722 0.80072 26.2883 0.80072C29.8545 0.80072 32.9075 2.1351 35.4471 4.80386C37.9867 7.47262 39.2565 10.6808 39.2565 14.4284C39.2565 18.1761 37.9867 21.3843 35.4471 24.053C32.9075 26.7218 29.8545 28.0562 26.2883 28.0562ZM0.351807 55.3116V45.7722C0.351807 43.8416 0.825148 42.0666 1.77183 40.4472C2.71851 38.8277 3.97427 37.5933 5.5391 36.7438C8.88923 34.9836 12.2934 33.6628 15.7516 32.7816C19.2098 31.9003 22.722 31.4608 26.2883 31.4631C29.8545 31.4631 33.3668 31.9037 36.825 32.785C40.2832 33.6662 43.6873 34.9858 47.0375 36.7438C48.6045 37.5956 49.8613 38.8311 50.808 40.4506C51.7547 42.07 52.2269 43.8439 52.2248 45.7722V55.3116H0.351807ZM6.83593 48.4977H45.7406V45.7722C45.7406 45.1476 45.5915 44.5798 45.2932 44.0687C44.995 43.5577 44.6038 43.1602 44.1196 42.8763C41.2018 41.3432 38.2569 40.1939 35.285 39.4285C32.3131 38.6631 29.3142 38.2792 26.2883 38.2769C23.2624 38.2769 20.2635 38.6608 17.2916 39.4285C14.3197 40.1962 11.3748 41.3455 8.45696 42.8763C7.97065 43.1602 7.57836 43.5577 7.28009 44.0687C6.98182 44.5798 6.83376 45.1476 6.83593 45.7722V48.4977ZM26.2883 21.2423C28.0714 21.2423 29.5984 20.5745 30.8693 19.239C32.1402 17.9035 32.7746 16.3 32.7724 14.4284C32.7724 12.5546 32.137 10.95 30.8661 9.61445C29.5952 8.27893 28.0693 7.61231 26.2883 7.61458C24.5052 7.61458 22.9781 8.28234 21.7073 9.61785C20.4364 10.9534 19.802 12.5569 19.8042 14.4284C19.8042 16.3022 20.4396 17.9069 21.7105 19.2424C22.9814 20.5779 24.5073 21.2446 26.2883 21.2423Z" fill="black"/>
</svg>
