<svg width="89" height="89" viewBox="0 0 89 89" fill="none" xmlns="http://www.w3.org/2000/svg">
<path d="M16.4119 75.5068L10.1636 5.58456H78.8199L72.5632 75.4957L44.45 83.2729L16.4119 75.5068Z" fill="#E44F26"/>
<path d="M44.4917 77.3297L67.2103 71.0453L72.5549 11.303H44.4917V77.3297Z" fill="#F1662A"/>
<path d="M44.4916 37.2342H33.1184L32.3342 28.4527H44.4916V19.8764H22.9409L23.1467 22.1793L25.2573 45.8104H44.4916V37.2342ZM44.4916 59.5058L44.4527 59.5169L34.8814 56.9393L34.2696 50.1H25.641L26.8451 63.5622L44.4527 68.4399L44.4916 68.4288V59.5058Z" fill="#EBEBEB"/>
<path d="M44.4609 37.2342V45.8104H55.0444L54.0489 56.9338L44.4609 59.5141V68.4372L62.0824 63.5622L62.2104 62.1139L64.2292 39.5371L64.4405 37.2342H44.4609ZM44.4609 19.8764V28.4527H65.2219L65.3943 26.5271L65.7864 22.1793L65.9921 19.8764H44.4609Z" fill="white"/>
</svg>
