<svg width="80" height="57" viewBox="0 0 80 57" fill="none" xmlns="http://www.w3.org/2000/svg">
<path d="M29.0252 9.49208C29.0252 6.97462 30.2118 4.56028 32.3241 2.78017C34.4363 1.00006 37.3011 0 40.2882 0C43.2754 0 46.1402 1.00006 48.2524 2.78017C50.3647 4.56028 51.5513 6.97462 51.5513 9.49208C51.5513 12.0095 50.3647 14.4239 48.2524 16.204C46.1402 17.9841 43.2754 18.9842 40.2882 18.9842C37.3011 18.9842 34.4363 17.9841 32.3241 16.204C30.2118 14.4239 29.0252 12.0095 29.0252 9.49208ZM40.2882 4.75079C39.5494 4.75079 38.8179 4.87343 38.1353 5.1117C37.4528 5.34997 36.8326 5.69921 36.3101 6.13948C35.7877 6.57975 35.3733 7.10243 35.0906 7.67767C34.8079 8.25291 34.6624 8.86945 34.6624 9.49208C34.6624 10.1147 34.8079 10.7313 35.0906 11.3065C35.3733 11.8817 35.7877 12.4044 36.3101 12.8447C36.8326 13.2849 37.4528 13.6342 38.1353 13.8725C38.8179 14.1107 39.5494 14.2334 40.2882 14.2334C41.7803 14.2334 43.2113 13.7338 44.2663 12.8447C45.3214 11.9555 45.9141 10.7495 45.9141 9.49208C45.9141 8.23461 45.3214 7.02865 44.2663 6.13948C43.2113 5.25032 41.7803 4.75079 40.2882 4.75079ZM57.1997 11.8675C57.1997 10.9317 57.4184 10.005 57.8434 9.1404C58.2683 8.27581 58.8912 7.49023 59.6764 6.8285C60.4615 6.16677 61.3937 5.64186 62.4196 5.28374C63.4455 4.92561 64.545 4.74129 65.6555 4.74129C66.7659 4.74129 67.8654 4.92561 68.8913 5.28374C69.9172 5.64186 70.8494 6.16677 71.6346 6.8285C72.4198 7.49023 73.0426 8.27581 73.4676 9.1404C73.8925 10.005 74.1112 10.9317 74.1112 11.8675C74.1112 13.7575 73.2203 15.57 71.6346 16.9065C70.0488 18.2429 67.8981 18.9937 65.6555 18.9937C63.4129 18.9937 61.2621 18.2429 59.6764 16.9065C58.0906 15.57 57.1997 13.7575 57.1997 11.8675ZM65.6555 9.49208C64.9079 9.49208 64.191 9.74235 63.6624 10.1878C63.1338 10.6333 62.8369 11.2375 62.8369 11.8675C62.8369 12.4975 63.1338 13.1017 63.6624 13.5471C64.191 13.9926 64.9079 14.2429 65.6555 14.2429C66.403 14.2429 67.1199 13.9926 67.6485 13.5471C68.1771 13.1017 68.474 12.4975 68.474 11.8675C68.474 11.2375 68.1771 10.6333 67.6485 10.1878C67.1199 9.74235 66.403 9.49208 65.6555 9.49208ZM14.921 4.74129C12.6784 4.74129 10.5277 5.49208 8.94192 6.8285C7.35616 8.16492 6.46529 9.97749 6.46529 11.8675C6.46529 13.7575 7.35616 15.57 8.94192 16.9065C10.5277 18.2429 12.6784 18.9937 14.921 18.9937C17.1636 18.9937 19.3144 18.2429 20.9001 16.9065C22.4859 15.57 23.3768 13.7575 23.3768 11.8675C23.3768 9.97749 22.4859 8.16492 20.9001 6.8285C19.3144 5.49208 17.1636 4.74129 14.921 4.74129ZM12.1024 11.8675C12.1024 11.2375 12.3994 10.6333 12.928 10.1878C13.4566 9.74235 14.1735 9.49208 14.921 9.49208C15.6686 9.49208 16.3855 9.74235 16.9141 10.1878C17.4426 10.6333 17.7396 11.2375 17.7396 11.8675C17.7396 12.4975 17.4426 13.1017 16.9141 13.5471C16.3855 13.9926 15.6686 14.2429 14.921 14.2429C14.1735 14.2429 13.4566 13.9926 12.928 13.5471C12.3994 13.1017 12.1024 12.4975 12.1024 11.8675ZM19.2504 23.7445C18.2583 25.188 17.737 26.8271 17.7396 28.4952H6.46529V40.3722C6.46483 41.5539 6.81307 42.7172 7.47866 43.7573C8.14425 44.7973 9.1063 45.6816 10.2782 46.3304C11.4501 46.9793 12.7951 47.3723 14.192 47.4742C15.589 47.5761 16.994 47.3836 18.2808 46.9141C18.6979 48.4866 19.3518 49.9878 20.1974 51.3893C18.0579 52.1173 15.739 52.3915 13.4444 52.1878C11.1498 51.984 8.94963 51.3086 7.03713 50.2208C5.12464 49.133 3.55831 47.6661 2.47571 45.9489C1.39312 44.2317 0.827358 42.3168 0.828126 40.3722V28.4952C0.828126 27.2353 1.42204 26.0269 2.47921 25.1359C3.53638 24.245 4.97022 23.7445 6.46529 23.7445H19.2504ZM60.3791 51.3893C62.5186 52.1173 64.8375 52.3915 67.1321 52.1878C69.4267 51.984 71.6269 51.3086 73.5394 50.2208C75.4519 49.133 77.0182 47.6661 78.1008 45.9489C79.1834 44.2317 79.7491 42.3168 79.7484 40.3722V28.4952C79.7484 27.2353 79.1545 26.0269 78.0973 25.1359C77.0401 24.245 75.6063 23.7445 74.1112 23.7445H61.3261C62.2844 25.1412 62.8369 26.7612 62.8369 28.4952H74.1112V40.3722C74.1117 41.5539 73.7634 42.7172 73.0978 43.7573C72.4322 44.7973 71.4702 45.6816 70.2983 46.3304C69.1264 46.9793 67.7814 47.3723 66.3845 47.4742C64.9875 47.5761 63.5825 47.3836 62.2957 46.9141C61.8729 48.4866 61.2247 49.9878 60.3791 51.3893ZM29.0139 23.7397C27.5189 23.7397 26.085 24.2402 25.0279 25.1312C23.9707 26.0221 23.3768 27.2305 23.3768 28.4905V42.7476C23.3768 46.5276 25.1585 50.1527 28.33 52.8256C31.5015 55.4984 35.803 57 40.2882 57C44.7735 57 49.075 55.4984 52.2465 52.8256C55.418 50.1527 57.1997 46.5276 57.1997 42.7476V28.4952C57.1997 27.2353 56.6058 26.0269 55.5486 25.1359C54.4915 24.245 53.0576 23.7445 51.5626 23.7445H29.0139V23.7397ZM29.0139 28.4905H51.5626V42.7476C51.5626 45.2676 50.3747 47.6844 48.2604 49.4663C46.146 51.2481 43.2784 52.2492 40.2882 52.2492C37.2981 52.2492 34.4304 51.2481 32.3161 49.4663C30.2018 47.6844 29.0139 45.2676 29.0139 42.7476V28.4952V28.4905Z" fill="black"/>
</svg>
