<svg width="94" height="92" viewBox="0 0 94 92" fill="none" xmlns="http://www.w3.org/2000/svg">
<path d="M17.2643 78.1668L10.6943 5.74734H82.9113L76.3326 78.1553L46.759 86.2102L17.2643 78.1668Z" fill="#1572B6"/>
<path d="M46.8027 80.0548L70.7015 73.5459L76.3237 11.67H46.8027V80.0548Z" fill="#33A9DC"/>
<path d="M46.8027 37.9066H58.7667L59.5916 28.8115H46.8027V19.9289H69.4729L69.2565 22.3112L67.0362 46.7892H46.8027V37.9066Z" fill="white"/>
<path d="M46.8586 60.9736L46.8177 60.9851L36.7492 58.3126L36.1057 51.229H27.0288L28.2954 65.1749L46.8148 70.2269L46.8586 70.2154V60.9736Z" fill="#EBEBEB"/>
<path d="M57.9975 46.4127L56.9093 58.3069L46.8262 60.9794V70.2211L65.3602 65.1749L65.4976 63.6749L67.0685 46.4127H57.9975Z" fill="white"/>
<path d="M46.8353 19.9289V28.8115H24.9958L24.8145 26.8142L24.402 22.3112L24.1855 19.9289H46.8353ZM46.8031 37.9066V46.7892H36.8604L36.679 44.792L36.2695 40.2889L36.053 37.9066H46.8031Z" fill="#EBEBEB"/>
</svg>
