<svg width="76" height="58" viewBox="0 0 76 58" fill="none" xmlns="http://www.w3.org/2000/svg">
<path d="M37.6718 16.9166C39.4028 16.9166 40.806 15.8347 40.806 14.5C40.806 13.1653 39.4028 12.0833 37.6718 12.0833C35.9408 12.0833 34.5376 13.1653 34.5376 14.5C34.5376 15.8347 35.9408 16.9166 37.6718 16.9166Z" fill="black"/>
<path d="M18.8667 41.0833H56.4771V45.9166H18.8667V41.0833ZM31.4035 28.5891L40.1542 35.3413L52.4779 25.8317L56.4771 29V19.3333H43.9403L48.0461 22.4146L40.1511 28.5021L31.4035 21.75L18.8667 31.4166L23.2985 34.8338L31.4035 28.5891Z" fill="black"/>
<path d="M59.6115 7.25002H49.2749C48.9672 6.89269 48.6323 6.54973 48.272 6.22293L48.2406 6.19393C45.9378 4.12587 42.698 2.8137 39.1828 2.52543C38.1846 2.37889 37.1596 2.37889 36.1614 2.52543C32.6462 2.8137 29.4064 4.12587 27.1036 6.19393L27.0722 6.22293C26.712 6.54895 26.3771 6.8911 26.0693 7.2476L15.7327 7.25002C13.2397 7.25193 10.8496 8.01639 9.08679 9.37561C7.324 10.7348 6.33257 12.5778 6.33008 14.5V48.3333C6.33257 50.2556 7.324 52.0985 9.08679 53.4577C10.8496 54.817 13.2397 55.5814 15.7327 55.5833H59.6115C62.1045 55.5814 64.4946 54.817 66.2574 53.4577C68.0202 52.0985 69.0116 50.2556 69.0141 48.3333V14.5C69.0116 12.5778 68.0202 10.7348 66.2574 9.37561C64.4946 8.01639 62.1045 7.25193 59.6115 7.25002ZM62.7457 48.3333C62.7457 48.9743 62.4155 49.589 61.8277 50.0422C61.24 50.4954 60.4428 50.75 59.6115 50.75H15.7327C14.9017 50.7494 14.105 50.4946 13.5174 50.0415C12.9298 49.5884 12.5993 48.9741 12.5985 48.3333V14.5C12.5993 13.8593 12.9298 13.245 13.5174 12.7919C14.105 12.3388 14.9017 12.084 15.7327 12.0833H29.9933C30.353 10.7176 31.3139 9.48969 32.7134 8.60773C34.1128 7.72576 35.8647 7.24396 37.6721 7.24396C39.4795 7.24396 41.2314 7.72576 42.6308 8.60773C44.0303 9.48969 44.9912 10.7176 45.3509 12.0833H59.6115C60.4425 12.084 61.2392 12.3388 61.8268 12.7919C62.4144 13.245 62.7449 13.8593 62.7457 14.5V48.3333Z" fill="black"/>
</svg>
