<svg width="78" height="74" viewBox="0 0 78 74" fill="none" xmlns="http://www.w3.org/2000/svg">
<g clip-path="url(#clip0_7_173)">
<path d="M60.0053 0.398895H18.8721C8.84978 0.398895 0.725098 8.05187 0.725098 17.4923V56.2374C0.725098 65.6778 8.84978 73.3308 18.8721 73.3308H60.0053C70.0276 73.3308 78.1523 65.6778 78.1523 56.2374V17.4923C78.1523 8.05187 70.0276 0.398895 60.0053 0.398895Z" fill="#F0DB4F"/>
<path d="M21.0838 61.346L27.0088 57.9684C28.1521 59.8774 29.1919 61.4927 31.6862 61.4927C34.077 61.4927 35.5845 60.6119 35.5845 57.1852V33.8818H42.8608V57.2821C42.8608 64.3807 38.4432 67.6119 31.998 67.6119C26.1774 67.6119 22.7987 64.7724 21.0835 61.3454M46.8129 60.6116L52.7373 57.3806C54.297 59.7797 56.3241 61.542 59.9099 61.542C62.925 61.542 64.8474 60.1221 64.8474 58.1638C64.8474 55.814 62.8724 54.9816 59.546 53.6112L57.7274 52.8765C52.4778 50.7718 48.9954 48.128 48.9954 42.547C48.9954 37.4064 53.1535 33.4897 59.6504 33.4897C64.2761 33.4897 67.6024 35.0076 69.993 38.973L64.3278 42.4C63.0802 40.2949 61.7294 39.4628 59.6504 39.4628C57.5193 39.4628 56.168 40.7356 56.168 42.4C56.168 44.456 57.5193 45.2885 60.6376 46.5616L62.4565 47.2958C68.6413 49.7929 72.1237 52.3381 72.1237 58.0658C72.1237 64.2348 66.9784 67.6125 60.066 67.6125C53.3095 67.6125 48.9437 64.5772 46.8129 60.6116Z" fill="#323330"/>
</g>
<defs>
<clipPath id="clip0_7_173">
<rect width="77.4272" height="72.9319" fill="white" transform="translate(0 0.398895)"/>
</clipPath>
</defs>
</svg>
