<svg width="93" height="85" viewBox="0 0 93 85" fill="none" xmlns="http://www.w3.org/2000/svg">
<path d="M70.7823 0.772949H21.668C9.70111 0.772949 0 9.53506 0 20.3437V64.7039C0 75.5126 9.70111 84.2747 21.668 84.2747H70.7823C82.7492 84.2747 92.4503 75.5126 92.4503 64.7039V20.3437C92.4503 9.53506 82.7492 0.772949 70.7823 0.772949Z" fill="url(#paint0_linear_7_178)"/>
<path d="M28.6153 23.1944C25.009 27.9625 25.4583 34.1648 28.2058 39.2248L28.408 39.5852L28.5445 39.8135C28.5698 39.8579 28.5987 39.9016 28.625 39.9446C28.6727 40.0249 28.7204 40.1019 28.7616 40.1808L29.0245 40.5957L29.1743 40.824L29.4795 41.2631L29.616 41.448C29.7525 41.6453 29.9067 41.8414 30.0584 42.0348L30.0707 42.0501C30.0945 42.0811 30.1212 42.1118 30.1393 42.1428C30.27 42.3091 30.4119 42.4732 30.5484 42.6359L30.7001 42.8134L31.0721 43.2342L31.214 43.3907C31.3834 43.575 31.5564 43.757 31.733 43.9358L31.7438 43.9456C31.7507 43.9534 31.7575 43.958 31.7644 43.9658C31.9356 44.1403 32.1111 44.3109 32.2913 44.4776L32.4606 44.6341L32.8817 45.0141L33.0536 45.1645C33.2429 45.3282 33.4353 45.489 33.6304 45.6472L33.7398 45.7333L34.2634 46.1404L34.4801 46.2996L34.9171 46.6078L35.1507 46.7712L35.8185 47.2119C35.8354 47.2223 35.8503 47.2334 35.8676 47.2439C36.0243 47.3427 36.1836 47.4383 36.3432 47.5338L36.5494 47.6601L37.2948 48.0795L37.501 48.1862L38.0608 48.4745C38.163 48.5251 38.2677 48.5734 38.3699 48.6213L38.77 48.8063L38.8621 48.847L39.0261 48.9198L39.6606 49.1899L39.7953 49.2515C40.0401 49.3497 40.2868 49.4439 40.5352 49.5343L40.7155 49.5999L41.4135 49.8376L41.5009 49.866C41.7588 49.9482 42.0183 50.0264 42.2792 50.1005L42.467 50.1521C42.74 50.2261 42.996 50.3145 43.2705 50.3618C60.7096 53.2942 65.7767 40.7278 65.7767 40.7278C61.5222 45.8266 53.9702 47.1705 46.8154 45.6743C46.5442 45.6127 46.2812 45.5406 46.0165 45.4685L45.8172 45.4068C45.5597 45.334 45.3035 45.2573 45.0487 45.1769L44.9429 45.1417C44.7157 45.0677 44.4897 44.9906 44.265 44.9104L44.074 44.8412C43.828 44.7522 43.584 44.6589 43.342 44.5614L43.1961 44.5023L42.5789 44.2372L42.4016 44.1582C42.2412 44.0854 42.0818 44.0108 41.9234 43.9345L41.6049 43.7802C41.4122 43.685 41.2215 43.5866 41.0329 43.485L40.8397 43.3862C40.5888 43.25 40.3403 43.1102 40.0943 42.967C40.026 42.9269 39.9603 42.8845 39.8928 42.8437L39.3623 42.5195L39.1918 42.4086L38.6902 42.0756L38.4674 41.9213L38.0149 41.5958L37.813 41.448L37.2496 41.0165C37.2282 40.9991 37.2054 40.9832 37.1814 40.9688C36.9811 40.8064 36.7837 40.6411 36.5891 40.4731L36.4223 40.3253L35.9962 39.9417L35.83 39.7874C35.6526 39.621 35.4785 39.4517 35.3078 39.2796C35.2995 39.2708 35.2898 39.2629 35.2818 39.2548C35.1013 39.0731 34.9247 38.8878 34.752 38.7L34.6134 38.5483L34.2313 38.1148L34.0912 37.9546L33.6509 37.4151C29.6785 32.4305 28.2585 25.5559 31.4256 19.9098L28.6153 23.1944ZM39.8101 19.1772C37.2027 22.6298 37.3439 27.2501 39.3782 30.9013C39.7184 31.5144 40.1037 32.1061 40.5316 32.6725C40.9224 33.1875 41.3557 33.8011 41.8743 34.214C42.0621 34.399 42.2586 34.5839 42.4594 34.7728C42.5099 34.8201 42.5619 34.8651 42.6136 34.9127C42.8086 35.0872 43.0079 35.2578 43.2116 35.4238C43.2199 35.43 43.2275 35.4372 43.2362 35.4434C43.4657 35.6276 43.7004 35.8065 43.94 35.9799L44.0986 36.0931C44.3369 36.2627 44.5807 36.4262 44.8288 36.584C44.8353 36.5889 44.8421 36.5938 44.8494 36.5984C44.9584 36.6679 45.0711 36.7337 45.1823 36.8003C45.2358 36.8326 45.286 36.8665 45.3394 36.8965C45.5174 37.0019 45.698 37.1036 45.8807 37.2018L45.9573 37.2426L46.4351 37.4892C46.4911 37.5182 46.5481 37.5433 46.6055 37.5704L46.9468 37.7296C46.9641 37.7377 46.9811 37.7436 46.9974 37.7511C47.2274 37.8558 47.4589 37.9546 47.6958 38.0502C47.7464 38.0704 47.798 38.089 47.85 38.1086C48.0397 38.183 48.2309 38.2544 48.4235 38.3226L48.6691 38.4054C48.8435 38.4638 49.0186 38.5199 49.1949 38.5737L49.4321 38.6432C49.6828 38.7153 49.9305 38.8053 50.192 38.8454C63.6565 40.8974 66.7659 31.3606 66.7659 31.3606C63.9638 35.0722 58.5378 36.8443 52.7463 35.462C52.4902 35.4003 52.236 35.3325 51.9839 35.2584C51.9066 35.2369 51.8312 35.2141 51.7546 35.1968C51.5757 35.1435 51.398 35.0872 51.2216 35.0278L50.9803 34.9453C50.7871 34.8837 50.5961 34.8067 50.4072 34.7326C50.3552 34.7121 50.3032 34.6938 50.2523 34.6723C50.0147 34.5784 49.7802 34.4782 49.5492 34.3719C49.4303 34.3184 49.3137 34.2623 49.1967 34.2065L48.9934 34.1106C48.8433 34.036 48.6947 33.9589 48.5477 33.8794L48.4412 33.8177C48.2595 33.7195 48.0797 33.6184 47.902 33.5144C47.8471 33.4821 47.794 33.4527 47.7395 33.4146L47.3899 33.2019C47.143 33.044 46.9004 32.8807 46.6622 32.7123L46.4983 32.5939C43.9639 30.7529 41.9541 28.2374 40.9993 25.3847C39.9979 22.4253 40.2142 19.1051 41.9549 16.4102L39.8101 19.1772ZM49.2234 16.176C47.6861 18.2574 47.5355 20.842 48.6091 23.1406C49.7341 25.5801 52.0392 27.4944 54.7293 28.4015C54.8401 28.4397 54.9514 28.4733 55.0705 28.5082L55.2182 28.5512C55.3764 28.5969 55.5342 28.6497 55.6975 28.6784C63.1325 29.9995 65.1487 25.1688 65.6853 24.4577C63.9187 26.7977 60.9502 27.3594 57.3078 26.5462C57.021 26.4813 56.7036 26.3857 56.4201 26.296C56.0637 26.1795 55.7145 26.0459 55.3739 25.8958C54.7256 25.6086 54.1109 25.2634 53.539 24.8654C50.2725 22.5903 48.2473 18.2512 50.3743 14.7173M32.8037 60.3595L32.3003 61.9725L32.8037 60.3602V60.3595ZM47.6055 56.6665H45.2982C45.2329 56.6686 45.17 56.6899 45.1191 56.727C45.0682 56.7641 45.032 56.8151 45.0158 56.8723L43.3774 63.7205C43.3612 63.7775 43.325 63.8283 43.2743 63.8653C43.2235 63.9023 43.1609 63.9234 43.0957 63.9256H41.4623C39.8458 63.9256 40.0329 62.9164 40.3698 61.5334L40.3803 61.4917L40.5761 60.5484L40.6606 60.1599L41.4063 56.8723C41.4134 56.8472 41.4139 56.821 41.4077 56.7957C41.4015 56.7704 41.3889 56.7468 41.3707 56.7267C41.3526 56.7066 41.3295 56.6906 41.3033 56.6801C41.2772 56.6695 41.2486 56.6646 41.22 56.6659H38.8513C38.786 56.6679 38.7232 56.6891 38.6725 56.7263C38.6217 56.7634 38.5858 56.8144 38.57 56.8717L37.5028 61.4428C36.916 63.862 37.0716 66.1694 40.2608 66.2415L40.3529 66.2431H45.3578C45.4232 66.241 45.486 66.2198 45.5368 66.1827C45.5877 66.1455 45.6238 66.0945 45.6399 66.0373L47.798 56.8717C47.8255 56.7585 47.7413 56.6659 47.6138 56.6659L47.6055 56.6665ZM56.8119 63.9498C56.9405 63.9498 57.0167 64.0421 56.9983 64.1556L56.7744 65.1452L56.8119 63.9498Z" fill="white"/>
<path d="M50.6397 62.6761C50.6379 62.5675 50.7744 62.3813 50.9026 62.3813L50.6144 62.377C50.4779 63.5571 50.6397 62.6761 50.6397 62.6761ZM56.8125 63.9499C56.9411 63.9499 57.0173 64.0422 56.9989 64.1557L56.7382 65.3061L56.8125 63.9499ZM52.5197 66.3616H52.4118H52.5335H52.5197ZM18.5952 62.7006L18.9538 61.2654L18.5443 62.9054L18.4962 63.1112L18.5959 62.6996L18.5952 62.7006ZM22.8862 56.6431H20.3517C20.2862 56.6452 20.2231 56.6664 20.1718 56.7034C20.1206 56.7404 20.0839 56.7913 20.0672 56.8486L19.5865 58.7597C19.5785 58.7844 19.5772 58.8106 19.5828 58.8359C19.5883 58.8611 19.6005 58.8849 19.6183 58.905C19.6361 58.9252 19.659 58.9411 19.6851 58.9516C19.7112 58.9621 19.7396 58.9667 19.7681 58.9652H22.3224C22.3877 58.963 22.4505 58.9418 22.5014 58.9048C22.5523 58.8677 22.5886 58.8169 22.6048 58.7597L23.0693 56.8441C23.0963 56.7315 23.0144 56.6389 22.8851 56.6389L22.8862 56.6431ZM14.9719 70.1225L17.0622 70.1375C16.445 70.1375 15.4262 70.127 14.9712 70.1221L14.9719 70.1225Z" fill="white"/>
<path d="M22.1508 59.624H19.5958C19.5302 59.6261 19.4671 59.6472 19.4159 59.6843C19.3646 59.7213 19.3279 59.7722 19.3112 59.8295L18.5944 62.6999L18.4947 63.1118L17.8122 66.0422C17.7786 66.1789 17.7374 66.3143 17.6894 66.4473C17.6894 66.4473 17.2116 67.7299 16.4102 67.7155L15.615 67.7022C15.5497 67.7037 15.4867 67.724 15.4351 67.7601C15.3836 67.7963 15.3461 67.8464 15.3283 67.9031L14.7992 69.9146C14.7909 69.9392 14.7893 69.9652 14.7944 69.9905C14.7996 70.0158 14.8114 70.0396 14.8288 70.0599C14.8463 70.0803 14.8688 70.0965 14.8947 70.1073C14.9205 70.1181 14.9488 70.1232 14.9772 70.1221L17.0682 70.1374C19.0725 70.1374 20.1285 69.1341 20.806 66.2487L22.3419 59.8367C22.3693 59.7242 22.2859 59.6315 22.1577 59.6315L22.1508 59.624ZM58.4397 66.2445C58.3115 66.2445 58.235 66.1521 58.2556 66.0386L60.1771 57.909L58.4397 66.2445Z" fill="white"/>
<path d="M58.2838 66.1418C58.2682 66.085 58.2773 65.9461 58.3043 65.8332L59.2162 61.9739L58.2552 66.0387C58.2278 66.1522 58.3112 66.2445 58.4394 66.2445H58.6731C58.5449 66.2445 58.2989 66.1982 58.2838 66.1418ZM60.9598 66.1982C60.8901 66.223 60.7276 66.2445 60.5993 66.2445H60.8326C60.8978 66.2421 60.9603 66.2207 61.0107 66.1835C61.0612 66.1462 61.0969 66.0952 61.1125 66.0381L61.1591 65.8322C61.1338 65.9454 61.0226 66.1731 60.9543 66.1982H60.9598ZM69.0813 58.4534L69.1871 58.8481C69.2167 58.961 69.1355 59.0526 69.0076 59.0533M61.8424 62.7717L61.9366 62.3623L62.3032 60.8117L61.8882 62.5675L61.8424 62.7711V62.7717ZM60.209 57.7753L60.1292 58.1142L59.2169 61.9739L60.1783 57.909L60.209 57.776V57.7753Z" fill="white"/>
<path d="M69.1876 58.8482L69.0818 58.4535L68.9251 57.837C68.7174 57.1093 68.1085 56.6882 66.7857 56.6882L60.6966 56.6846C60.6314 56.6866 60.5686 56.7078 60.5179 56.7449C60.4672 56.7821 60.4313 56.8332 60.4157 56.8904L60.3214 57.2933L60.1849 57.9016L58.3117 65.8261C58.2842 65.9396 58.2756 66.0727 58.2911 66.1343C58.307 66.196 58.5526 66.2374 58.6804 66.2374H60.6053C60.7335 66.2374 60.8952 66.2162 60.9657 66.1911C61.0361 66.1657 61.139 65.9445 61.1704 65.8248L61.901 62.5607L62.6825 59.2536C62.6987 59.1966 62.7348 59.1458 62.7855 59.1088C62.8361 59.0719 62.8987 59.0507 62.9638 59.0484L69.0204 59.0458C69.1482 59.0458 69.2295 58.9535 69.1999 58.8407L69.1876 58.8482ZM76.9852 55.2765L76.519 55.2781H74.5804C74.5095 55.2821 74.4403 55.2997 74.3774 55.3297C74.3145 55.3596 74.2594 55.4013 74.2157 55.452L69.929 61.1242C69.8568 61.2198 69.7741 61.2058 69.7448 61.0936L69.4292 59.8437C69.4123 59.7865 69.3756 59.7357 69.3244 59.6987C69.2731 59.6618 69.2101 59.6407 69.1446 59.6385H66.3892C66.2606 59.6385 66.1844 59.7292 66.2198 59.8407L67.4484 63.7483C67.4838 63.8592 67.4859 64.0422 67.4552 64.1551L66.9092 66.0463C66.8997 66.0705 66.8971 66.0964 66.9017 66.1218C66.9063 66.1471 66.918 66.1709 66.9356 66.1911C66.9531 66.2113 66.9759 66.2273 67.0019 66.2376C67.0279 66.2479 67.0564 66.2522 67.0847 66.2501H69.8149C69.8808 66.2477 69.9443 66.2268 69.9964 66.1904C70.0486 66.1539 70.0869 66.1036 70.106 66.0466L70.652 64.1557C70.6946 64.0227 70.7618 63.8968 70.8499 63.7836L77.8166 55.4399C77.8938 55.3473 77.8523 55.2723 77.7237 55.2732L76.9935 55.2778L76.9852 55.2765ZM55.0897 60.1698C55.0734 60.2931 54.9452 60.3858 54.8166 60.3858H51.3216C51.201 60.3858 51.1396 60.3117 51.158 60.2191L51.1605 60.2025L51.1764 60.149C51.5177 59.3475 52.1901 58.8214 53.4671 58.8214C54.9055 58.8214 55.1861 59.4565 55.0886 60.1698H55.0897ZM54.0644 56.5274C49.5798 56.5274 48.517 58.9861 47.9211 61.4677C47.3246 63.9972 47.3762 66.363 52.0168 66.363H52.7524L53.319 66.361L56.272 66.3451C56.3368 66.3424 56.3989 66.3208 56.449 66.2836C56.499 66.2464 56.5344 66.1955 56.5497 66.1386L56.9983 64.1583C57.0243 64.0448 56.9405 63.9522 56.8119 63.9522H52.6397C50.981 63.9522 50.4877 63.5539 50.669 62.3833H57.3384C57.3921 62.3827 57.4443 62.3676 57.4884 62.3399C57.5324 62.3123 57.5662 62.2733 57.5855 62.228C57.593 62.2111 57.5985 62.1935 57.6017 62.1755C58.5916 58.8032 58.3077 56.53 54.0658 56.53L54.0644 56.5274ZM32.8666 60.1565L32.8037 60.358L32.3003 61.9707L31.7965 63.5823C31.7756 63.6391 31.7361 63.6889 31.6832 63.725C31.6304 63.7611 31.5666 63.7819 31.5004 63.7845H28.8338C26.8118 63.7845 26.3196 62.3562 26.8118 60.2494C27.3033 58.0947 28.2693 56.7548 30.2592 56.6194C32.9785 56.4344 33.522 58.1619 32.8666 60.1558V60.1565ZM34.6946 63.6613C34.6946 63.6613 35.9506 60.9054 36.2374 59.313C36.6263 57.1814 35.4458 54.0909 30.8825 54.0909C26.3448 54.0909 24.3748 57.0415 23.6237 60.2563C22.8725 63.4867 23.857 66.3206 28.3675 66.2984L35.2522 66.2756C35.3182 66.2726 35.3816 66.2513 35.4338 66.2147C35.486 66.178 35.5245 66.1278 35.544 66.0707L36.124 64.0745C36.1332 64.0504 36.1358 64.0245 36.1314 63.9993C36.127 63.974 36.1157 63.9501 36.0987 63.9297C36.0816 63.9091 36.0589 63.8928 36.0329 63.8823C36.0069 63.8718 35.9783 63.8675 35.9499 63.8697L34.8394 63.8635C34.7304 63.8628 34.6686 63.7996 34.6809 63.7157C34.6836 63.6997 34.6882 63.6839 34.6946 63.6688V63.6613Z" fill="white"/>
<path d="M57.155 61.8172C57.155 61.8538 57.1389 61.889 57.1102 61.9149C57.0815 61.9408 57.0426 61.9554 57.0021 61.9554C56.9615 61.9554 56.9226 61.9408 56.8939 61.9149C56.8652 61.889 56.8491 61.8538 56.8491 61.8172C56.8491 61.7806 56.8652 61.7454 56.8939 61.7195C56.9226 61.6936 56.9615 61.6791 57.0021 61.6791C57.0426 61.6791 57.0815 61.6936 57.1102 61.7195C57.1389 61.7454 57.155 61.7806 57.155 61.8172Z" fill="white"/>
<defs>
<linearGradient id="paint0_linear_7_178" x1="0" y1="0.772949" x2="83.0709" y2="92.7463" gradientUnits="userSpaceOnUse">
<stop stop-color="#FF5C00"/>
<stop offset="1" stop-color="#FF0F00"/>
</linearGradient>
</defs>
</svg>
