<svg width="256" height="241" viewBox="0 0 256 241" fill="none" xmlns="http://www.w3.org/2000/svg">
<path d="M216 20H40C34.6957 20 29.6086 22.1071 25.8579 25.8579C22.1071 29.6086 20 34.6957 20 40V216C20 221.304 22.1071 226.391 25.8579 230.142C29.6086 233.893 34.6957 236 40 236H216C221.304 236 226.391 233.893 230.142 230.142C233.893 226.391 236 221.304 236 216V40C236 34.6957 233.893 29.6086 230.142 25.8579C226.391 22.1071 221.304 20 216 20ZM212 212H44V44H212V212ZM112 176V124C112.002 121.506 112.782 119.075 114.229 117.045C115.677 115.014 117.722 113.485 120.078 112.67C122.435 111.855 124.988 111.795 127.38 112.497C129.773 113.2 131.888 114.63 133.43 116.59C139.525 113.395 146.341 111.827 153.22 112.037C160.098 112.247 166.806 114.227 172.695 117.788C178.584 121.348 183.455 126.367 186.837 132.361C190.218 138.354 191.997 145.118 192 152V176C192 179.183 190.736 182.235 188.485 184.485C186.235 186.736 183.183 188 180 188C176.817 188 173.765 186.736 171.515 184.485C169.264 182.235 168 179.183 168 176V152C168 147.757 166.314 143.687 163.314 140.686C160.313 137.686 156.243 136 152 136C147.757 136 143.687 137.686 140.686 140.686C137.686 143.687 136 147.757 136 152V176C136 179.183 134.736 182.235 132.485 184.485C130.235 186.736 127.183 188 124 188C120.817 188 117.765 186.736 115.515 184.485C113.264 182.235 112 179.183 112 176ZM96 124V176C96 179.183 94.7357 182.235 92.4853 184.485C90.2348 186.736 87.1826 188 84 188C80.8174 188 77.7652 186.736 75.5147 184.485C73.2643 182.235 72 179.183 72 176V124C72 120.817 73.2643 117.765 75.5147 115.515C77.7652 113.264 80.8174 112 84 112C87.1826 112 90.2348 113.264 92.4853 115.515C94.7357 117.765 96 120.817 96 124ZM68 80C68 76.8355 68.9384 73.7421 70.6965 71.1109C72.4546 68.4797 74.9534 66.4289 77.8771 65.2179C80.8007 64.0069 84.0177 63.6901 87.1214 64.3074C90.2251 64.9248 93.0761 66.4487 95.3137 68.6863C97.5513 70.9239 99.0752 73.7749 99.6926 76.8786C100.31 79.9823 99.9931 83.1993 98.7821 86.1229C97.5711 89.0466 95.5203 91.5454 92.8891 93.3035C90.2579 95.0616 87.1645 96 84 96C79.7565 96 75.6869 94.3143 72.6863 91.3137C69.6857 88.3131 68 84.2435 68 80Z" fill="black"/>
</svg>
