<svg width="86" height="85" viewBox="0 0 86 85" fill="none" xmlns="http://www.w3.org/2000/svg">
<g clip-path="url(#clip0_7_190)">
<path d="M65.4736 0.441315H20.0429C8.97353 0.441315 0 9.31433 0 20.2598V65.1816C0 76.127 8.97353 85 20.0429 85H65.4736C76.543 85 85.5166 76.127 85.5166 65.1816V20.2598C85.5166 9.31433 76.543 0.441315 65.4736 0.441315Z" fill="#242938"/>
<path d="M16.4214 33.5533H25.9111C28.6964 33.5764 30.7147 34.3705 31.9661 35.9342C33.2174 37.4978 33.6303 39.6336 33.2054 42.3415C33.0404 43.5788 32.6742 44.7924 32.1077 45.9828C31.5645 47.1732 30.8096 48.2467 29.8415 49.2039C28.661 50.4175 27.3983 51.1878 26.0527 51.5148C24.7072 51.8418 23.3142 52.0049 21.8744 52.0049H17.6253L16.2798 58.6573H11.3579L16.4214 33.5533ZM20.5643 37.5447L18.4398 48.0485C18.5814 48.0716 18.723 48.0835 18.8647 48.0835H19.3604C21.6266 48.1067 23.5153 47.8853 25.0259 47.4183C26.5364 46.9281 27.5519 45.2244 28.0711 42.3065C28.496 39.8556 28.0711 38.4432 26.7963 38.0699C25.545 37.6967 23.9756 37.5216 22.0869 37.5447C21.8036 37.5679 21.5324 37.5798 21.2725 37.5798H20.5289L20.5643 37.5447ZM38.8121 26.8659H43.6985L42.3176 33.5533H46.7083C49.1161 33.6002 50.91 34.0904 52.0905 35.0238C53.2944 35.9573 53.6485 37.7317 53.1528 40.3457L50.7804 52.0049H45.8231L48.0893 40.8709C48.3251 39.7036 48.2543 38.8752 47.8768 38.385C47.4993 37.8949 46.6849 37.6498 45.4336 37.6498L41.5032 37.6148L38.5996 52.0049H33.7131L38.8121 26.8659ZM58.4 33.5533H67.8897C70.675 33.5764 72.6933 34.3705 73.9447 35.9342C75.196 37.4978 75.6089 39.6336 75.184 42.3415C75.019 43.5788 74.6529 44.7924 74.0863 45.9828C73.5431 47.1732 72.7882 48.2467 71.8201 49.2039C70.6396 50.4175 69.3769 51.1878 68.0313 51.5148C66.6858 51.8418 65.2928 52.0049 63.8531 52.0049H59.6039L58.2584 58.6573H53.3365L58.4 33.5533ZM62.5429 37.5447L60.4184 48.0485C60.56 48.0716 60.7016 48.0835 60.8433 48.0835H61.339C63.6052 48.1067 65.4939 47.8853 67.0045 47.4183C68.515 46.9281 69.5306 45.2244 70.0497 42.3065C70.4746 39.8556 70.0497 38.4432 68.7749 38.0699C67.5236 37.6967 65.9542 37.5216 64.0655 37.5447C63.7822 37.5679 63.511 37.5798 63.2511 37.5798H62.5075L62.5429 37.5447Z" fill="white"/>
</g>
<defs>
<clipPath id="clip0_7_190">
<rect width="85.5166" height="84.5587" fill="white" transform="translate(0 0.441315)"/>
</clipPath>
</defs>
</svg>
