<svg width="78" height="76" viewBox="0 0 78 76" fill="none" xmlns="http://www.w3.org/2000/svg">
<g clip-path="url(#clip0_7_196)">
<path d="M38.3858 0.517303C18.7774 0.517303 20.0017 8.79147 20.0017 8.79147L20.0235 17.3638H38.7354V19.9374H12.5914C12.5914 19.9374 0.0439453 18.5527 0.0439453 37.8042C0.0439453 57.0562 10.9957 56.3735 10.9957 56.3735H17.5316V47.4398C17.5316 47.4398 17.1792 36.7833 28.3085 36.7833H46.8674C46.8674 36.7833 57.2944 36.9472 57.2944 26.9776V10.4934C57.2944 10.4934 58.878 0.517303 38.3858 0.517303ZM28.068 6.282C28.5102 6.28161 28.9481 6.36607 29.3567 6.53055C29.7653 6.69502 30.1366 6.93628 30.4492 7.24052C30.7619 7.54476 31.0098 7.906 31.1789 8.30358C31.3479 8.70116 31.4347 9.12727 31.4343 9.55753C31.4347 9.98779 31.3479 10.4139 31.1789 10.8115C31.0098 11.2091 30.7619 11.5703 30.4492 11.8745C30.1366 12.1788 29.7653 12.42 29.3567 12.5845C28.9481 12.749 28.5102 12.8334 28.068 12.8331C27.6259 12.8334 27.1879 12.749 26.7794 12.5845C26.3708 12.42 25.9995 12.1788 25.6868 11.8745C25.3742 11.5703 25.1262 11.2091 24.9572 10.8115C24.7882 10.4139 24.7014 9.98779 24.7018 9.55753C24.7014 9.12727 24.7882 8.70116 24.9572 8.30358C25.1262 7.906 25.3742 7.54476 25.6868 7.24052C25.9995 6.93628 26.3708 6.69502 26.7794 6.53055C27.1879 6.36607 27.6259 6.28161 28.068 6.282Z" fill="url(#paint0_linear_7_196)"/>
<path d="M38.9426 75.2847C58.551 75.2847 57.3267 67.0106 57.3267 67.0106L57.3049 58.4386H38.5927V55.8649H64.7367C64.7367 55.8649 77.2842 57.2496 77.2842 37.9975C77.2842 18.7458 66.3325 19.4286 66.3325 19.4286H59.7965V28.362C59.7965 28.362 60.1489 39.0185 49.0196 39.0185H30.4607C30.4607 39.0185 20.0337 38.8545 20.0337 48.8245V65.3089C20.0337 65.3089 18.4504 75.2847 38.9423 75.2847H38.9426ZM49.2604 69.5206C48.8182 69.521 48.3803 69.4366 47.9717 69.2721C47.5631 69.1076 47.1918 68.8663 46.8792 68.5621C46.5665 68.2579 46.3186 67.8966 46.1495 67.499C45.9805 67.1015 45.8937 66.6753 45.8941 66.2451C45.8937 65.8148 45.9804 65.3887 46.1495 64.9911C46.3185 64.5934 46.5664 64.2322 46.8791 63.9279C47.1917 63.6236 47.563 63.3823 47.9716 63.2178C48.3802 63.0534 48.8182 62.9689 49.2604 62.9693C49.7026 62.9689 50.1405 63.0533 50.5491 63.2178C50.9577 63.3823 51.3289 63.6235 51.6416 63.9278C51.9542 64.232 52.2022 64.5933 52.3712 64.9908C52.5402 65.3884 52.627 65.8145 52.6266 66.2448C52.627 66.6751 52.5402 67.1012 52.3712 67.4987C52.2022 67.8963 51.9542 68.2576 51.6416 68.5618C51.3289 68.866 50.9577 69.1073 50.5491 69.2718C50.1405 69.4363 49.7026 69.521 49.2604 69.5206Z" fill="url(#paint1_linear_7_196)"/>
</g>
<defs>
<linearGradient id="paint0_linear_7_196" x1="742.32" y1="673.006" x2="4466.57" y2="4462.23" gradientUnits="userSpaceOnUse">
<stop stop-color="#387EB8"/>
<stop offset="1" stop-color="#366994"/>
</linearGradient>
<linearGradient id="paint1_linear_7_196" x1="1115.63" y1="1168.95" x2="5120.09" y2="5059.36" gradientUnits="userSpaceOnUse">
<stop stop-color="#FFE052"/>
<stop offset="1" stop-color="#FFC331"/>
</linearGradient>
<clipPath id="clip0_7_196">
<rect width="77.4272" height="75.0458" fill="white" transform="translate(0 0.496124)"/>
</clipPath>
</defs>
</svg>
