<svg width="92" height="86" viewBox="0 0 92 86" fill="none" xmlns="http://www.w3.org/2000/svg">
<path d="M17.1176 40.6202C17.8743 40.6202 18.5999 40.3418 19.135 39.8462C19.67 39.3506 19.9706 38.6785 19.9706 37.9777V14.1956H51.3531V30.0503C51.3531 30.7511 51.6537 31.4233 52.1887 31.9188C52.7238 32.4144 53.4494 32.6928 54.2061 32.6928H71.3238V37.9777C71.3238 38.6785 71.6244 39.3506 72.1594 39.8462C72.6945 40.3418 73.4201 40.6202 74.1768 40.6202C74.9334 40.6202 75.6591 40.3418 76.1941 39.8462C76.7292 39.3506 77.0298 38.6785 77.0298 37.9777V30.0503C77.03 29.7032 76.9565 29.3594 76.8133 29.0387C76.6701 28.7179 76.4601 28.4264 76.1953 28.1808L56.2246 9.68356C55.9594 9.43825 55.6447 9.24373 55.2983 9.11111C54.952 8.97849 54.5808 8.91037 54.2061 8.91065H19.9706C18.4573 8.91065 17.0059 9.46745 15.9359 10.4586C14.8658 11.4497 14.2646 12.7939 14.2646 14.1956V37.9777C14.2646 38.6785 14.5652 39.3506 15.1003 39.8462C15.6353 40.3418 16.361 40.6202 17.1176 40.6202ZM57.059 17.9313L67.2905 27.4079H57.059V17.9313ZM81.3092 69.6872C81.3092 70.388 81.0086 71.0602 80.4736 71.5557C79.9386 72.0513 79.2129 72.3297 78.4562 72.3297H68.4709C67.7142 72.3297 66.9886 72.0513 66.4535 71.5557C65.9185 71.0602 65.6179 70.388 65.6179 69.6872V51.19C65.6179 50.4892 65.9185 49.817 66.4535 49.3215C66.9886 48.8259 67.7142 48.5475 68.4709 48.5475C69.2275 48.5475 69.9532 48.8259 70.4882 49.3215C71.0233 49.817 71.3238 50.4892 71.3238 51.19V67.0448H78.4562C79.2129 67.0448 79.9386 67.3232 80.4736 67.8187C81.0086 68.3143 81.3092 68.9864 81.3092 69.6872ZM32.7447 65.8259C32.6335 66.8366 32.2819 67.8119 31.7153 68.6817C31.1486 69.5515 30.3809 70.2942 29.4674 70.8565C27.6165 71.9994 25.3199 72.3297 23.2301 72.3297C21.4075 72.3208 19.5934 72.0988 17.8308 71.6691C17.1108 71.4737 16.5028 71.0235 16.1385 70.4159C15.7743 69.8083 15.6831 69.0923 15.8848 68.4229C16.0864 67.7535 16.5647 67.1846 17.216 66.8395C17.8672 66.4944 18.6391 66.4008 19.3643 66.579C20.9263 66.9754 24.6958 67.4708 26.3362 66.4601C26.6536 66.2652 26.9888 65.958 27.0994 65.162C27.2242 64.2801 26.8462 63.8077 22.5418 62.655C19.2074 61.7631 13.6263 60.2668 14.3395 55.0216C14.4505 54.0308 14.7956 53.0747 15.3503 52.2213C15.905 51.3679 16.6557 50.638 17.5491 50.0835C21.7715 47.441 28.5045 48.9901 29.257 49.1718C29.6194 49.2603 29.9595 49.4141 30.2579 49.6243C30.5562 49.8345 30.8069 50.0971 30.9957 50.3971C31.1844 50.6971 31.3075 51.0285 31.358 51.3726C31.4084 51.7166 31.3852 52.0665 31.2897 52.4022C31.1941 52.738 31.0281 53.053 30.8012 53.3293C30.5742 53.6056 30.2907 53.8378 29.9668 54.0126C29.6429 54.1875 29.2851 54.3015 28.9136 54.3482C28.5422 54.395 28.1644 54.3735 27.8019 54.285C26.2007 53.8985 22.3742 53.4394 20.7337 54.4699C20.5187 54.6043 20.3417 54.7846 20.2175 54.9955C20.0934 55.2065 20.0258 55.442 20.0205 55.6822C19.9777 55.9795 19.9706 56.0389 20.4199 56.3098C21.2437 56.8019 22.7165 57.195 24.1466 57.5781C27.6379 58.5129 33.5435 60.1083 32.7447 65.8259ZM58.0647 66.8928C59.2814 64.9289 59.9185 62.7029 59.912 60.4386C59.912 53.882 54.7945 48.5475 48.5002 48.5475C42.2058 48.5475 37.0883 53.882 37.0883 60.4386C37.0883 66.9952 42.2058 72.3297 48.5002 72.3297C50.5154 72.323 52.4853 71.7745 54.1704 70.7508L55.0406 71.5568C55.5759 72.0521 56.3018 72.3303 57.0585 72.33C57.8153 72.3297 58.5409 72.0509 59.0757 71.5551C59.6106 71.0593 59.9109 70.3869 59.9105 69.686C59.9102 68.9851 59.6093 68.3131 59.0739 67.8177L58.0647 66.8928ZM48.5002 67.0448C45.3548 67.0448 42.7942 64.072 42.7942 60.4386C42.7942 56.8052 45.3548 53.8325 48.5002 53.8325C51.6455 53.8325 54.2061 56.8052 54.2061 60.4386C54.2065 61.2808 54.0645 62.1178 53.7853 62.9192L53.368 62.5328C53.103 62.2875 52.7883 62.0929 52.4421 61.9603C52.0958 61.8276 51.7248 61.7594 51.3501 61.7595C50.5933 61.7598 49.8677 62.0386 49.3329 62.5344C48.798 63.0302 48.4977 63.7026 48.498 64.4035C48.4984 65.1044 48.7993 65.7764 49.3347 66.2718L49.9338 66.8234C49.4715 66.9669 48.9877 67.0416 48.5002 67.0448Z" fill="black"/>
</svg>
